<?xml version="1.0" standalone="no"?>
<!DOCTYPE svg PUBLIC "-//W3C//DTD SVG 20010904//EN"
 "http://www.w3.org/TR/2001/REC-SVG-20010904/DTD/svg10.dtd">
<svg version="1.0" xmlns="http://www.w3.org/2000/svg"
 width="700.000000pt" height="700.000000pt" viewBox="0 0 700.000000 700.000000"
 preserveAspectRatio="xMidYMid meet">
<metadata>
Created by potrace 1.14, written by Peter Selinger 2001-2017
</metadata>
<g transform="translate(0.000000,700.000000) scale(0.100000,-0.100000)"
fill="#000000" stroke="none">
<path d="M3405 6981 c-141 -50 -269 -165 -338 -303 -42 -84 -46 -100 -52 -228
-7 -134 -8 -135 -61 -155 -25 -9 -79 -40 -120 -67 -160 -107 -253 -262 -259
-434 -6 -159 48 -297 163 -410 64 -63 179 -135 247 -154 38 -11 45 -16 45 -39
3 -225 2 -512 -2 -516 -5 -5 -390 -7 -788 -6 l-106 1 -28 58 c-109 223 -293
352 -506 357 -41 1 -100 -5 -130 -13 -146 -37 -289 -151 -374 -300 l-48 -83
-82 7 c-60 5 -102 2 -152 -9 -132 -30 -195 -68 -304 -179 -103 -106 -151 -219
-151 -357 0 -103 8 -140 54 -231 55 -111 151 -210 256 -264 96 -50 153 -64
259 -65 48 0 92 0 98 -1 6 0 32 -42 58 -94 104 -208 278 -334 471 -341 107 -5
165 7 260 54 141 70 222 159 301 329 l39 83 400 -5 c220 -2 416 -5 436 -5 l37
-1 1 -918 2 -918 -78 -39 c-112 -57 -214 -162 -274 -281 l-44 -89 0 -130 0
-130 45 -90 c59 -119 151 -214 265 -272 l81 -42 -4 -104 c-3 -74 1 -122 12
-167 48 -187 234 -374 414 -416 59 -14 220 -11 269 4 164 52 362 254 389 396
3 21 8 77 9 125 2 47 3 98 4 113 1 24 11 32 84 67 127 61 241 169 308 294 l34
62 0 160 0 160 -32 61 c-67 128 -169 227 -293 284 -125 58 -113 44 -117 140
-2 47 -4 457 -6 912 l-3 827 383 -3 c426 -3 392 3 434 -76 72 -138 209 -262
334 -305 48 -16 213 -22 290 -11 78 12 196 87 280 178 70 76 78 87 105 143 13
28 25 52 26 54 2 2 47 3 101 2 125 -2 188 10 281 55 128 61 269 227 302 354 7
25 12 98 11 164 l0 119 -53 96 c-70 127 -150 207 -261 260 -88 43 -121 50
-267 56 -62 2 -96 8 -99 16 -2 7 -22 48 -44 93 -55 110 -173 228 -281 282 -74
36 -81 37 -192 40 -141 2 -202 -11 -291 -64 -125 -75 -200 -163 -264 -312
l-37 -85 -73 -2 c-188 -4 -670 -4 -677 1 -4 2 -7 126 -7 275 l1 272 85 47
c134 75 252 208 296 334 19 55 25 247 9 310 -29 109 -166 273 -287 342 -35 20
-71 40 -79 45 -8 5 -14 17 -12 27 24 178 -11 320 -111 447 -78 99 -180 175
-271 203 -80 24 -260 27 -321 5z m250 -232 c63 -17 123 -60 159 -114 43 -65
58 -114 57 -183 -1 -62 -6 -83 -44 -182 -15 -39 -23 -76 -20 -93 5 -27 62 -86
86 -88 155 -17 201 -29 260 -71 61 -43 110 -162 108 -259 -2 -78 -32 -156 -81
-207 -51 -53 -84 -70 -189 -98 -115 -31 -125 -43 -131 -152 -8 -135 -5 -784 4
-810 4 -12 22 -30 39 -40 29 -15 78 -17 567 -17 520 0 536 1 570 20 39 23 54
62 64 166 4 34 15 82 26 106 28 63 108 137 172 159 71 24 183 21 244 -5 57
-25 149 -120 159 -163 4 -18 9 -40 11 -48 2 -8 6 -49 9 -90 8 -101 14 -132 27
-148 16 -19 59 -38 83 -37 26 1 96 25 113 38 6 5 12 7 12 4 0 -3 15 0 33 7 17
8 68 14 112 15 66 1 89 -3 131 -23 77 -36 140 -108 161 -186 9 -31 4 -187 -7
-215 -42 -112 -166 -197 -285 -196 -51 1 -107 15 -205 50 -54 20 -74 20 -116
-1 -30 -14 -44 -49 -59 -150 -16 -102 -34 -144 -86 -198 -64 -66 -109 -83
-219 -84 -115 0 -164 19 -233 93 -37 40 -51 65 -73 137 -14 49 -33 101 -40
116 -26 51 -47 53 -579 53 -269 0 -511 -4 -537 -8 -69 -12 -88 -32 -94 -97 -2
-30 -6 -524 -8 -1097 l-3 -1041 30 -22 c19 -15 59 -27 116 -36 178 -27 238
-63 289 -174 35 -74 37 -211 5 -281 -48 -107 -133 -163 -265 -174 -162 -14
-170 -16 -194 -52 -24 -38 -19 -92 16 -176 29 -70 31 -81 26 -165 -7 -100 -13
-122 -49 -170 -70 -93 -180 -131 -318 -112 -110 16 -180 66 -222 160 -31 69
-29 204 5 290 36 90 39 109 24 145 -21 50 -51 64 -176 81 -55 8 -138 39 -165
62 -37 31 -72 86 -90 141 -37 113 1 272 80 338 38 33 123 71 176 79 23 4 62
21 87 39 l46 31 0 1082 0 1082 -37 37 -37 37 -492 -1 c-572 0 -691 -3 -734
-15 -38 -10 -58 -52 -69 -143 -17 -136 -80 -233 -178 -275 -72 -31 -190 -32
-267 -1 -62 24 -84 41 -122 91 -41 55 -49 88 -63 256 -6 74 -23 110 -60 124
-34 13 -98 3 -163 -26 -50 -22 -69 -25 -155 -23 -113 3 -159 19 -214 75 -60
62 -77 114 -77 229 1 79 5 110 21 145 46 102 142 159 271 161 52 1 89 -6 161
-31 83 -29 97 -31 131 -21 51 15 80 62 86 138 6 80 19 121 53 174 53 84 131
126 245 133 72 4 149 -18 210 -61 66 -46 90 -92 126 -240 14 -56 46 -92 92
-102 20 -5 298 -9 618 -10 l582 -2 20 23 c53 60 51 38 52 495 1 339 -1 429
-12 444 -19 27 -65 49 -115 55 -197 24 -287 89 -326 238 -26 98 10 244 75 310
57 57 122 78 289 91 77 7 103 19 124 59 17 31 9 77 -32 191 -22 57 -26 84 -23
146 4 87 25 136 83 191 88 84 193 110 318 77z"/>
</g>
</svg>
